<svg xmlns="http://www.w3.org/2000/svg" xmlns:xlink="http://www.w3.org/1999/xlink" viewBox="0 0 128 128"><defs><style>.cls-1{isolation:isolate;}.cls-2,.cls-5{fill:#0575c9;}.cls-3{fill:#0461ad;}.cls-4{fill:none;stroke:#fff;stroke-linecap:round;stroke-linejoin:round;stroke-width:2px;}.cls-5{opacity:0.64;}.cls-5,.cls-9{mix-blend-mode:multiply;}.cls-6{fill:#f2432c;}.cls-7{fill:#ffe961;}.cls-8{fill:#fff;}.cls-9{opacity:0.24;fill:url(#linear-gradient);}</style><linearGradient id="linear-gradient" x1="79.58" y1="83.83" x2="59.87" y2="64.12" gradientUnits="userSpaceOnUse"><stop offset="0" stop-color="#0575c9"/><stop offset="1" stop-color="#0575c9" stop-opacity="0"/></linearGradient></defs><title>ping-pong</title><g class="cls-1"><g id="circles"><circle class="cls-2" cx="64" cy="64" r="64"/><circle class="cls-3" cx="64" cy="64" r="1"/><circle class="cls-3" cx="70" cy="60" r="1"/><circle class="cls-3" cx="64" cy="56" r="1"/><circle class="cls-3" cx="70" cy="52" r="1"/><circle class="cls-3" cx="64" cy="48" r="1"/><circle class="cls-3" cx="70" cy="44" r="1"/><circle class="cls-3" cx="64" cy="40" r="1"/><circle class="cls-3" cx="70" cy="36" r="1"/><circle class="cls-3" cx="64" cy="32" r="1"/><circle class="cls-3" cx="70" cy="28" r="1"/><circle class="cls-3" cx="64" cy="24" r="1"/><circle class="cls-3" cx="70" cy="20" r="1"/><circle class="cls-3" cx="64" cy="16" r="1"/><circle class="cls-3" cx="70" cy="12" r="1"/><circle class="cls-3" cx="64" cy="8" r="1"/><circle class="cls-3" cx="70" cy="4" r="1"/><circle class="cls-3" cx="64" cy="88" r="1"/><circle class="cls-3" cx="70" cy="84" r="1"/><circle class="cls-3" cx="64" cy="80" r="1"/><circle class="cls-3" cx="70" cy="76" r="1"/><circle class="cls-3" cx="64" cy="72" r="1"/><circle class="cls-3" cx="70" cy="68" r="1"/><circle class="cls-3" cx="64" cy="112" r="1"/><circle class="cls-3" cx="70" cy="108" r="1"/><circle class="cls-3" cx="64" cy="104" r="1"/><circle class="cls-3" cx="70" cy="100" r="1"/><circle class="cls-3" cx="64" cy="96" r="1"/><circle class="cls-3" cx="70" cy="92" r="1"/><circle class="cls-3" cx="70" cy="124" r="1"/><circle class="cls-3" cx="64" cy="120" r="1"/><circle class="cls-3" cx="70" cy="116" r="1"/><circle class="cls-3" cx="76" cy="64" r="1"/><circle class="cls-3" cx="82" cy="60" r="1"/><circle class="cls-3" cx="76" cy="56" r="1"/><circle class="cls-3" cx="82" cy="52" r="1"/><circle class="cls-3" cx="76" cy="48" r="1"/><circle class="cls-3" cx="82" cy="44" r="1"/><circle class="cls-3" cx="76" cy="40" r="1"/><circle class="cls-3" cx="82" cy="36" r="1"/><circle class="cls-3" cx="76" cy="32" r="1"/><circle class="cls-3" cx="82" cy="28" r="1"/><circle class="cls-3" cx="76" cy="24" r="1"/><circle class="cls-3" cx="82" cy="20" r="1"/><circle class="cls-3" cx="76" cy="16" r="1"/><circle class="cls-3" cx="82" cy="12" r="1"/><circle class="cls-3" cx="76" cy="8" r="1"/><circle class="cls-3" cx="82" cy="4" r="1"/><circle class="cls-3" cx="76" cy="88" r="1"/><circle class="cls-3" cx="82" cy="84" r="1"/><circle class="cls-3" cx="76" cy="80" r="1"/><circle class="cls-3" cx="82" cy="76" r="1"/><circle class="cls-3" cx="76" cy="72" r="1"/><circle class="cls-3" cx="82" cy="68" r="1"/><circle class="cls-3" cx="76" cy="112" r="1"/><circle class="cls-3" cx="82" cy="108" r="1"/><circle class="cls-3" cx="76" cy="104" r="1"/><circle class="cls-3" cx="82" cy="100" r="1"/><circle class="cls-3" cx="76" cy="96" r="1"/><circle class="cls-3" cx="82" cy="92" r="1"/><circle class="cls-3" cx="82" cy="124" r="1"/><circle class="cls-3" cx="76" cy="120" r="1"/><circle class="cls-3" cx="82" cy="116" r="1"/><circle class="cls-3" cx="88" cy="64" r="1"/><circle class="cls-3" cx="94" cy="60" r="1"/><circle class="cls-3" cx="88" cy="56" r="1"/><circle class="cls-3" cx="94" cy="52" r="1"/><circle class="cls-3" cx="88" cy="48" r="1"/><circle class="cls-3" cx="94" cy="44" r="1"/><circle class="cls-3" cx="88" cy="40" r="1"/><circle class="cls-3" cx="94" cy="36" r="1"/><circle class="cls-3" cx="88" cy="32" r="1"/><circle class="cls-3" cx="94" cy="28" r="1"/><circle class="cls-3" cx="88" cy="24" r="1"/><circle class="cls-3" cx="94" cy="20" r="1"/><circle class="cls-3" cx="88" cy="16" r="1"/><circle class="cls-3" cx="94" cy="12" r="1"/><circle class="cls-3" cx="88" cy="8" r="1"/><circle class="cls-3" cx="88" cy="88" r="1"/><circle class="cls-3" cx="94" cy="84" r="1"/><circle class="cls-3" cx="88" cy="80" r="1"/><circle class="cls-3" cx="94" cy="76" r="1"/><circle class="cls-3" cx="88" cy="72" r="1"/><circle class="cls-3" cx="94" cy="68" r="1"/><circle class="cls-3" cx="88" cy="112" r="1"/><circle class="cls-3" cx="94" cy="108" r="1"/><circle class="cls-3" cx="88" cy="104" r="1"/><circle class="cls-3" cx="94" cy="100" r="1"/><circle class="cls-3" cx="88" cy="96" r="1"/><circle class="cls-3" cx="94" cy="92" r="1"/><circle class="cls-3" cx="88" cy="120" r="1"/><circle class="cls-3" cx="94" cy="116" r="1"/><circle class="cls-3" cx="100" cy="64" r="1"/><circle class="cls-3" cx="106" cy="60" r="1"/><circle class="cls-3" cx="100" cy="56" r="1"/><circle class="cls-3" cx="106" cy="52" r="1"/><circle class="cls-3" cx="100" cy="48" r="1"/><circle class="cls-3" cx="106" cy="44" r="1"/><circle class="cls-3" cx="100" cy="40" r="1"/><circle class="cls-3" cx="106" cy="36" r="1"/><circle class="cls-3" cx="100" cy="32" r="1"/><circle class="cls-3" cx="106" cy="28" r="1"/><circle class="cls-3" cx="100" cy="24" r="1"/><circle class="cls-3" cx="106" cy="20" r="1"/><circle class="cls-3" cx="100" cy="16" r="1"/><circle class="cls-3" cx="100" cy="88" r="1"/><circle class="cls-3" cx="106" cy="84" r="1"/><circle class="cls-3" cx="100" cy="80" r="1"/><circle class="cls-3" cx="106" cy="76" r="1"/><circle class="cls-3" cx="100" cy="72" r="1"/><circle class="cls-3" cx="106" cy="68" r="1"/><circle class="cls-3" cx="100" cy="112" r="1"/><circle class="cls-3" cx="106" cy="108" r="1"/><circle class="cls-3" cx="100" cy="104" r="1"/><circle class="cls-3" cx="106" cy="100" r="1"/><circle class="cls-3" cx="100" cy="96" r="1"/><circle class="cls-3" cx="106" cy="92" r="1"/><circle class="cls-3" cx="112" cy="64" r="1"/><circle class="cls-3" cx="118" cy="60" r="1"/><circle class="cls-3" cx="112" cy="56" r="1"/><circle class="cls-3" cx="118" cy="52" r="1"/><circle class="cls-3" cx="112" cy="48" r="1"/><circle class="cls-3" cx="118" cy="44" r="1"/><circle class="cls-3" cx="112" cy="40" r="1"/><circle class="cls-3" cx="118" cy="36" r="1"/><circle class="cls-3" cx="112" cy="32" r="1"/><circle class="cls-3" cx="112" cy="24" r="1"/><circle class="cls-3" cx="112" cy="88" r="1"/><circle class="cls-3" cx="118" cy="84" r="1"/><circle class="cls-3" cx="112" cy="80" r="1"/><circle class="cls-3" cx="118" cy="76" r="1"/><circle class="cls-3" cx="112" cy="72" r="1"/><circle class="cls-3" cx="118" cy="68" r="1"/><circle class="cls-3" cx="112" cy="104" r="1"/><circle class="cls-3" cx="112" cy="96" r="1"/><circle class="cls-3" cx="118" cy="92" r="1"/><circle class="cls-3" cx="124" cy="64" r="1"/><circle class="cls-3" cx="124" cy="56" r="1"/><circle class="cls-3" cx="124" cy="48" r="1"/><circle class="cls-3" cx="124" cy="80" r="1"/><circle class="cls-3" cx="124" cy="72" r="1"/><path class="cls-3" d="M65,0H63a1,1,0,0,0,1,1A1,1,0,0,0,65,0Z"/><path class="cls-3" d="M65,128a1,1,0,0,0-2,0h2Z"/><path class="cls-4" d="M28.11,52.07a33.55,33.55,0,0,1,5.38-12.62"/><path class="cls-4" d="M27.93,62A57.35,57.35,0,0,0,31,73.33a44.17,44.17,0,0,1-5,4.47c-1.16.94-2.36,1.9-3.48,2.91-.45.4-.89.82-1.31,1.24s-.66.68-1,1"/><path class="cls-4" d="M38.13,33.61c.93-1,1.87-2,2.78-2.91A56.05,56.05,0,0,1,55,20.35"/></g><g id="icons"><path class="cls-5" d="M95.18,40.82c-16.56-16.56-33.11-6.31-41.78,2.37-6.39,6.39-9.33,11.46-9.76,17-.32,4.06,1.07,8.79,3.06,14.1,3.46,9.24-8.28,15.37-13,20.1-2.37,2.37-2.37,3.94.79,7.1s4.73,3.15,7.1.79c4.73-4.73,10.87-16.47,20.1-13,5.31,2,10,3.38,14.1,3.06,5.58-.44,10.65-3.38,17-9.76C101.48,73.93,111.73,57.38,95.18,40.82Z"/><path class="cls-6" d="M88.81,78.61c8.67-8.67,18.92-25.23,2.37-41.78s-33.11-6.31-41.78,2.37c-6.39,6.39-9.33,11.46-9.76,17L71.77,88.37C77.35,87.93,82.42,85,88.81,78.61Z"/><path class="cls-7" d="M42.69,70.33c3.46,9.24-8.28,15.37-13,20.1-2.37,2.37-2.37,3.94.79,7.1s4.73,3.15,7.1.79c4.73-4.73,10.87-16.47,20.1-13,5.31,2,10,3.38,14.1,3.06L39.63,56.23C39.31,60.29,40.7,65,42.69,70.33Z"/><circle class="cls-8" cx="55" cy="54" r="6" transform="translate(-22.07 54.71) rotate(-45)"/><path class="cls-9" d="M91,36.84c-.72-.62-1.44-1.2-2.16-1.73C100,50.19,90.73,64.68,82.81,72.61c-6.39,6.39-11.46,9.33-17,9.76-4.06.32-8.79-1.07-14.1-3.06a9.4,9.4,0,0,0-3.33-.63,5.85,5.85,0,0,0-4.88,2.64c-3,4.56-6.72,6.18-9.78,9.11C31,93,30.61,93.3,32.63,95.32s2.37,1.68,4.94-1c4.62-4.83,8.87-14.47,18.1-11,5.31,2,10,3.38,14.1,3.06,5.58-.44,10.65-3.38,17-9.76C95.13,68.29,104.87,52.71,91,36.84Z"/></g></g></svg>