<svg id="Layer_1" data-name="Layer 1" xmlns="http://www.w3.org/2000/svg" viewBox="0 0 500 500"><defs><style>.cls-1{fill:#d28f53;}.cls-2{fill:#eaeae9;}.cls-3{opacity:0.2;}.cls-4{fill:#725540;}.cls-5{fill:#ef5353;}.cls-6{fill:none;stroke:#000;stroke-linecap:round;stroke-linejoin:round;stroke-width:20px;}</style></defs><title>ping-pong</title><path class="cls-1" d="M427.83,86.15C384.25,42.57,321.22,28.47,260.08,42.42a62.13,62.13,0,1,1-108.67,60.16l-1.92,1.87C76.63,177.32,62.1,284,110.31,357.17l27.83-27.83,43.79,43.78-28.35,28.36c73.28,50.8,182,36.94,255.94-37C491.43,282.57,499.63,158,427.83,86.15Z"/><rect class="cls-1" x="77.01" y="329.66" width="61.93" height="147.27" transform="translate(316.8 41.78) rotate(45)"/><circle class="cls-2" cx="206.64" cy="74.11" r="62.13"/><path class="cls-3" d="M250.57,30.18a62.56,62.56,0,0,0-6.35-5.46,62.06,62.06,0,0,1-95.58,71.56,62.11,62.11,0,1,0,101.93-66.1Z"/><path class="cls-3" d="M469.87,158.3c.74,55.15-22,113.34-67.16,158.53-63.24,63.24-151.91,82.5-222.1,55l1.32,1.32-28.34,28.35c73.28,50.8,182,36.95,255.93-37C468.06,305.94,488.93,225.59,469.87,158.3Z"/><path class="cls-4" d="M34.08,433.54c-.6.52-1.19,1-1.76,1.62a31,31,0,0,0,43.79,43.78c.57-.56,1.1-1.15,1.62-1.75Z"/><path class="cls-5" d="M427.83,86.15C384.25,42.57,321.22,28.46,260.08,42.42a62.13,62.13,0,1,1-108.67,60.16l-1.92,1.87C101.29,152.66,78.64,215.65,82.78,274L240,431.19c58.32,4.14,121.31-18.5,169.52-66.71C491.43,282.56,499.63,158,427.83,86.15Z"/><path class="cls-6" d="M427.83,86.15C384.25,42.57,321.22,28.47,260.08,42.42a62.13,62.13,0,1,1-108.67,60.16l-1.92,1.87C76.63,177.32,62.1,284,110.31,357.17l27.83-27.83,43.79,43.78-28.35,28.36c73.28,50.8,182,36.94,255.94-37C491.43,282.57,499.63,158,427.83,86.15Z"/><rect class="cls-6" x="77.01" y="329.66" width="61.93" height="147.27" transform="translate(316.8 41.78) rotate(45)"/><circle class="cls-6" cx="206.64" cy="74.11" r="62.13"/><path class="cls-6" d="M34.08,433.54c-.6.52-1.19,1-1.76,1.62a31,31,0,0,0,43.79,43.78c.57-.56,1.1-1.15,1.62-1.75Z"/><path class="cls-6" d="M427.83,86.15C384.25,42.57,321.22,28.46,260.08,42.42a62.13,62.13,0,1,1-108.67,60.16l-1.92,1.87C101.29,152.66,78.64,215.65,82.78,274L240,431.19c58.32,4.14,121.31-18.5,169.52-66.71C491.43,282.56,499.63,158,427.83,86.15Z"/></svg>